# xmcd CD database file
#
# Track frame offsets:
#	151
#	23895
#	79266
#	117315
#	144718
#	180090
#	225520
#
# Disc length: 3740 seconds
#
# Revision: 0
# Processed by: cddbd v1.5.2PL0 Copyright (c) Steve Scherf et al.
# Submitted via: CDex 1.70beta2
#
DISCID=4f0e9a07
DTITLE=Miles Davis - Quiet Elegance
DYEAR=1983
DGENRE=Jazz
TTITLE0=Come Get It
TTITLE1=Start People
TTITLE2=Speak
TTITLE3=It Get's Better
TTITLE4=Hopscotch
TTITLE5=Star On Cicely
TTITLE6=Jean Pierre
EXTD=YEAR: 1983
EXTT0=
EXTT1=
EXTT2=
EXTT3=
EXTT4=
EXTT5=
EXTT6=
PLAYORDER=
